<svg width="91" height="74" viewBox="0 0 91 74" fill="none" xmlns="http://www.w3.org/2000/svg">
<path d="M82.2119 23.5484L73.6682 25.7449L44.3021 19.049C39.7078 18.0037 33.6829 19.5908 30.9089 22.6031L13.6612 41.1995L6.17647 43.1271L8.21159 49.7209C8.67546 51.2238 10.2239 52.4847 12.7636 53.0514L48.2541 61.1491C52.8432 62.1961 58.8665 60.6037 61.6474 57.595L83.0883 34.4817C84.3502 33.1243 84.722 31.6997 84.3259 30.454L82.2119 23.5484Z" fill="#918EFF"/>
<path d="M80.9605 27.5689L59.5196 50.6821C56.7497 53.67 50.7247 55.2572 46.1263 54.2363L10.6374 46.1438C6.04307 45.0985 4.55964 41.7947 7.32956 38.8068L28.7705 15.6936C31.5404 12.7057 37.5637 11.1132 42.1637 12.1394L77.6527 20.2319C82.247 21.2772 83.7357 24.5794 80.9605 27.5689Z" fill="white" stroke="#918EFF" stroke-width="2" stroke-miterlimit="10"/>
<path d="M24.5216 34.9786C24.2397 34.0754 24.1261 33.1281 24.1866 32.1839C24.2459 31.2241 24.4775 30.2827 24.8707 29.4051C25.2793 28.4966 25.8734 27.6835 26.6146 27.0179C27.4371 26.292 28.4106 25.7579 29.4648 25.4543C30.6752 25.0475 31.9742 24.9814 33.2197 25.2633C34.3225 25.5163 35.3295 26.0806 36.121 26.8891L34.4045 29.065C34.0325 28.6261 33.5627 28.2807 33.0327 28.0568C32.5645 27.861 32.061 27.764 31.5535 27.7715C31.0791 27.777 30.608 27.8501 30.1543 27.9888C29.5025 28.1729 28.9074 28.518 28.4239 28.9924C27.9961 29.433 27.6646 29.9577 27.4504 30.5332C27.2386 31.1116 27.1329 31.7234 27.1384 32.3393C27.1447 32.9526 27.239 33.5618 27.4185 34.1482C27.6113 34.7809 27.9088 35.3767 28.2987 35.911C28.6699 36.429 29.1318 36.8755 29.6619 37.229C30.1731 37.571 30.7515 37.7997 31.3584 37.8995C31.98 38.0054 32.6181 37.9595 33.2182 37.7659C33.6855 37.6196 34.1264 37.3994 34.524 37.1137C34.9508 36.8129 35.3156 36.4327 35.5984 35.9938C35.9003 35.5245 36.083 34.9886 36.1308 34.4326L38.8672 35.0545C38.798 35.8777 38.5067 36.6668 38.0243 37.3374C37.527 38.05 36.9077 38.6689 36.1948 39.1656C35.4961 39.6604 34.7245 40.0433 33.9078 40.3004C32.9209 40.6182 31.8726 40.6974 30.8492 40.5315C29.8691 40.3732 28.9305 40.0204 28.0888 39.4939C27.2445 38.9683 26.4974 38.3009 25.8802 37.521C25.2735 36.7652 24.8128 35.903 24.5216 34.9786Z" fill="#918EFF"/>
<path d="M47.8711 36.0023C46.8711 36.326 45.8112 36.4214 44.7695 36.2815C43.7938 36.1463 42.8563 35.8122 42.0149 35.3001C41.1771 34.7881 40.4368 34.1315 39.8282 33.361C39.2151 32.6003 38.7502 31.7312 38.4579 30.799C38.154 29.8482 38.0418 28.8465 38.1279 27.852C38.2128 26.8712 38.4728 25.9135 38.8955 25.0243C39.3214 24.1348 39.9185 23.338 40.6525 22.6794C41.4265 21.9926 42.3422 21.4844 43.3345 21.1909C44.328 20.8704 45.3819 20.7832 46.4146 20.9358C47.3945 21.0852 48.3338 21.4322 49.1754 21.9558C50.0049 22.4734 50.7403 23.1285 51.3499 23.8929C51.9601 24.6511 52.4237 25.5164 52.717 26.4444C53.0118 27.3916 53.1222 28.3866 53.042 29.3754C52.9622 30.3545 52.7032 31.3106 52.2781 32.1962C51.8565 33.0842 51.2595 33.8777 50.5231 34.5288C49.7554 35.205 48.8508 35.7076 47.8711 36.0023ZM41.3509 29.9002C41.5412 30.5223 41.8284 31.1104 42.2018 31.6431C42.5587 32.1625 43.0061 32.6134 43.5227 32.9742C44.0242 33.321 44.5964 33.5522 45.1981 33.6511C45.8422 33.7545 46.5017 33.702 47.1214 33.498C47.7604 33.3122 48.3441 32.9729 48.8218 32.5095C49.2615 32.077 49.5984 31.5511 49.8074 30.9707C50.0194 30.3813 50.1276 29.7596 50.1271 29.1333C50.136 28.5089 50.0477 27.8869 49.8653 27.2897C49.6758 26.6722 49.3865 26.09 49.0087 25.5661C48.6436 25.0497 48.1913 24.6009 47.6721 24.2398C47.1705 23.8964 46.6009 23.665 46.002 23.5612C45.3654 23.462 44.7142 23.514 44.1014 23.7131C43.4579 23.8957 42.8696 24.2346 42.3888 24.6996C41.9551 25.132 41.6217 25.6544 41.4121 26.2299C41.1957 26.8099 41.0829 27.4234 41.0789 28.0425C41.0716 28.674 41.1639 29.3028 41.3526 29.9055L41.3509 29.9002Z" fill="#918EFF"/>
<path d="M58.234 40.1881C58.0975 39.7606 57.9971 39.3224 57.9339 38.8781C57.8832 38.5184 57.8837 38.1533 57.9355 37.7938C57.9804 37.4694 58.0792 37.1548 58.2278 36.8631C58.4029 36.5445 58.6147 36.2477 58.8589 35.9786C59.0904 35.7332 59.3342 35.4899 59.5831 35.245C59.8294 35.014 60.0613 34.7682 60.2776 34.509C60.4756 34.283 60.631 34.0229 60.7362 33.7415C60.8338 33.4638 60.8344 33.1612 60.7379 32.8832C60.6788 32.6667 60.5621 32.4704 60.4002 32.315C60.245 32.1769 60.054 32.0852 59.8491 32.0504C59.6067 32.016 59.3596 32.0387 59.1276 32.1166C58.8367 32.203 58.5658 32.3457 58.3299 32.5367C58.1153 32.7161 57.9236 32.9212 57.7592 33.1476C57.615 33.3457 57.4856 33.5542 57.3721 33.7713L56.04 33.0232C56.1343 32.8233 56.2433 32.6308 56.3664 32.4472C56.5351 32.2033 56.7243 31.9743 56.9318 31.7626C57.1782 31.5103 57.4544 31.2888 57.7542 31.1031C58.1039 30.8872 58.4805 30.7184 58.8743 30.6009C59.4155 30.4097 59.9954 30.3541 60.5631 30.439C61.0248 30.5106 61.4552 30.7164 61.8007 31.0308C62.1487 31.3595 62.4013 31.7761 62.5322 32.2366C62.637 32.5569 62.6782 32.8947 62.6535 33.2309C62.6247 33.5348 62.5391 33.8306 62.4011 34.1029C62.2583 34.3659 62.0877 34.6128 61.8923 34.8395C61.6995 35.0787 61.4892 35.3175 61.2704 35.5473C60.9262 35.897 60.6479 36.1973 60.4445 36.4398C60.2727 36.6433 60.119 36.8614 59.985 37.0916C59.8913 37.257 59.8213 37.4347 59.777 37.6195C59.7455 37.7827 59.7248 37.9479 59.7151 38.1139L63.9487 36.8072L64.3962 38.2572L58.234 40.1881Z" fill="#918EFF"/>
</svg>
