<svg width="161" height="131" viewBox="0 0 161 131" fill="none" xmlns="http://www.w3.org/2000/svg">
<path d="M145.884 41.8561L130.786 45.7492L78.5757 33.8562C70.4311 32.0014 59.7467 34.8137 54.8219 40.1198L24.1055 73.2389L11.0116 76.6105L14.4448 87.7342C14.5222 88.1266 14.6405 88.5099 14.7977 88.8776C15.8446 91.263 18.5442 93.216 22.6486 94.1529L85.6215 108.52C93.7662 110.374 104.459 107.559 109.373 102.247L147.419 61.2351C149.473 59.0189 150.196 56.7083 149.756 54.6211L145.884 41.8561Z" fill="#918EFF"/>
<path d="M143.657 48.9505L105.611 89.9626C100.695 95.2659 90.0041 98.0898 81.8567 96.2262L18.8866 81.8684C10.7392 80.0048 8.09737 74.1508 13.0222 68.8447L51.0596 27.8353C55.9844 22.5292 66.6663 19.708 74.8137 21.5716L137.793 35.9268C145.928 37.7844 148.573 43.6471 143.657 48.9505Z" fill="white" stroke="#918EFF" stroke-width="2" stroke-miterlimit="10"/>
<path d="M72.6189 70.4489C71.1097 72.07 67.8402 72.8947 65.3552 72.3608C63.332 71.9077 58.5143 68.5018 57.5671 67.8234C57.4984 67.7806 57.441 67.7218 57.4 67.6521C57.359 67.5823 57.3355 67.5035 57.3316 67.4227C57.3276 67.3418 57.3433 67.2612 57.3773 67.1878C57.4113 67.1143 57.4626 67.0502 57.5268 67.0009C57.8762 66.6797 58.3313 66.4978 58.8058 66.4897C60.4596 66.4064 68.8013 66.0063 70.8272 66.4683C73.3231 67.0377 74.1254 68.819 72.6189 70.4489ZM61.485 67.9052C63.108 69.0993 64.8639 70.1015 66.7173 70.8919C67.3576 71.029 68.0213 71.0136 68.6545 70.8468C69.2877 70.68 69.8726 70.3667 70.3623 69.932C71.0845 69.1266 70.7177 68.2205 69.4625 67.9283C66.8066 67.7509 64.1419 67.7432 61.485 67.9052Z" fill="#918EFF"/>
<path d="M85.7695 49.0809C83.6859 51.3258 79.2083 52.5136 75.7608 51.7234C72.7861 51.0495 65.1383 45.6145 64.2778 44.9967C64.209 44.9545 64.1515 44.8964 64.1101 44.8273C64.0686 44.7582 64.0444 44.6801 64.0396 44.5996C64.0347 44.5191 64.0495 44.4387 64.0824 44.3651C64.1153 44.2916 64.1654 44.227 64.2286 44.177C64.5788 43.8516 65.0359 43.6656 65.5137 43.6541C67.0236 43.5764 80.3377 42.9619 83.3015 43.6004C86.7374 44.3845 87.8469 46.8477 85.7695 49.0809ZM68.1638 45.0689C71.3397 47.2438 75.5582 49.9027 77.1257 50.2634C78.249 50.499 79.4116 50.4687 80.5211 50.1751C81.6306 49.8816 82.656 49.333 83.5158 48.5728C84.8554 47.1885 84.1317 45.5673 81.9394 45.0693C80.3718 44.7085 73.5527 44.8522 68.1638 45.0689Z" fill="#918EFF"/>
<path d="M101.133 64.2597C97.5823 68.0738 89.9259 70.0972 84.076 68.7574C78.6462 67.5209 63.6781 56.8313 63.0427 56.3769C62.9758 56.3328 62.9202 56.2734 62.8805 56.2038C62.8407 56.1341 62.8179 56.0561 62.814 55.976C62.8101 55.8959 62.8251 55.8159 62.8579 55.7426C62.8906 55.6694 62.9403 55.6049 63.0027 55.5545C63.3548 55.2317 63.8129 55.0489 64.2905 55.0405C65.398 54.9802 91.494 53.6631 96.9237 54.8996C102.776 56.2483 104.672 60.4395 101.133 64.2597ZM66.8997 56.4486C72.0191 60.0137 81.7723 66.4201 85.4292 67.2912C90.0473 68.3511 96.0774 66.752 98.8942 63.7372C101.711 60.7224 100.189 57.4257 95.5705 56.3658C91.9095 55.5444 75.6636 56.0638 66.8997 56.4486Z" fill="#918EFF"/>
</svg>
