<svg width="40" height="40" viewBox="0 0 40 40" fill="none" xmlns="http://www.w3.org/2000/svg">
<circle cx="20" cy="20" r="20" fill="white"/>
<path d="M26.6688 12.5H13.3312C13.1113 12.5016 12.9008 12.5897 12.7453 12.7453C12.5897 12.9008 12.5016 13.1113 12.5 13.3312V26.6688C12.5016 26.8887 12.5897 27.0992 12.7453 27.2547C12.9008 27.4103 13.1113 27.4984 13.3312 27.5H20.5125V21.7H18.5625V19.4313H20.5125V17.7625C20.5125 15.825 21.6937 14.7688 23.4312 14.7688C24.0125 14.7688 24.5938 14.7687 25.175 14.8562V16.875H23.9813C23.0375 16.875 22.8562 17.325 22.8562 17.9813V19.425H25.1063L24.8125 21.6937H22.8562V27.5H26.6688C26.8887 27.4984 27.0992 27.4103 27.2547 27.2547C27.4103 27.0992 27.4984 26.8887 27.5 26.6688V13.3312C27.4984 13.1113 27.4103 12.9008 27.2547 12.7453C27.0992 12.5897 26.8887 12.5016 26.6688 12.5V12.5Z" fill="#164CD6"/>
</svg>
