<svg width="96" height="76" viewBox="0 0 96 76" fill="none" xmlns="http://www.w3.org/2000/svg">
<path d="M88.4463 46.8797L79.5123 44.0504L56.6874 21.3608C53.1266 17.8216 46.7795 15.8509 42.5833 16.9939L16.3806 24.0876L8.63115 21.6414L6.83996 28.3994C6.75446 28.6241 6.6927 28.8571 6.6557 29.0947C6.42963 30.6439 7.18384 32.4991 8.97753 34.2838L36.5018 61.6566C40.0626 65.1958 46.4097 67.1665 50.6045 66.0289L83.0531 57.2395C84.8111 56.7653 85.9172 55.8127 86.3561 54.614L88.4463 46.8797Z" fill="#918EFF"/>
<path d="M85.0481 49.78L52.5993 58.5693C48.4046 59.7069 42.0561 57.7416 38.4954 54.2024L10.9725 26.8243C7.41175 23.2851 7.93093 19.4544 12.1311 18.3183L44.5797 9.52898C48.7745 8.39136 55.1215 10.362 58.6823 13.9012L86.2052 41.2794C89.766 44.8186 89.2468 48.6492 85.0481 49.78Z" fill="white" stroke="#918EFF" stroke-width="2" stroke-miterlimit="10"/>
<path d="M33.2223 35.317L31.4549 30.3209L29.7713 31.2762L28.9971 34.1972L26.4696 33.5273L30.1191 19.758L32.6466 20.4279L30.4255 28.808L35.5682 25.4646L38.2628 26.1788L33.4862 29.3597L35.9329 36.0355L33.2223 35.317Z" fill="#918EFF"/>
<path d="M45.0017 24.1466L47.4162 24.7866L47.7711 29.6275L50.4934 25.6022L52.8861 26.2364L48.9695 31.7216L49.5371 36.4343L56.0649 27.0385L58.8942 27.7884L49.9879 39.7606L47.7407 39.165L46.8753 32.9199L43.0467 37.9209L40.7994 37.3253L39.0137 22.5192L41.8052 23.2591L42.86 34.6646L45.6498 30.8417L45.0017 24.1466Z" fill="#918EFF"/>
<path d="M65.6811 43.9201L63.1535 43.2501L64.6019 37.7855C64.8052 37.1999 64.8076 36.5633 64.6086 35.9762C64.5097 35.7582 64.3608 35.5665 64.174 35.4168C63.9872 35.267 63.7678 35.1635 63.5334 35.1145C63.196 35.0344 62.8446 35.0341 62.507 35.1136C62.1127 35.1992 61.738 35.3581 61.4023 35.5821C61.0528 35.8107 60.7566 36.1119 60.5338 36.4651L59.0212 42.1722L56.4937 41.5023L60.1475 27.7169L62.6749 28.3868L61.1366 34.1908C61.6517 33.6739 62.2993 33.3087 63.0082 33.1354C63.7302 32.9468 64.4889 32.9491 65.2098 33.1421C65.7552 33.2629 66.2625 33.5163 66.6868 33.8797C67.0192 34.1865 67.2642 34.5758 67.3971 35.0081C67.5268 35.4472 67.5772 35.9058 67.5458 36.3625C67.5097 36.8512 67.4277 37.3354 67.3009 37.8088L65.6811 43.9201Z" fill="#918EFF"/>
</svg>
