<svg width="40" height="40" viewBox="0 0 40 40" fill="none" xmlns="http://www.w3.org/2000/svg">
<circle cx="20" cy="20" r="20" fill="white"/>
<path d="M26.375 12.5H13.625C13 12.5 12.5 13 12.5 13.5625V26.375C12.5 26.9375 13 27.4375 13.625 27.4375H26.375C27 27.4375 27.5 26.9375 27.5 26.375V13.5625C27.5 13 27 12.5 26.375 12.5ZM16.9375 25.25H14.75V18.125H16.9375V25.25ZM15.875 17.125C15.1875 17.125 14.5625 16.5625 14.5625 15.8125C14.5625 15.0625 15.125 14.5 15.875 14.5C16.5625 14.5 17.1875 15.0625 17.1875 15.8125C17.1875 16.5625 16.5625 17.125 15.875 17.125ZM25.3125 25.1875H23.125V21.6875C23.125 20.875 23.125 19.75 21.9375 19.75C20.75 19.75 20.625 20.6875 20.625 21.5625V25.125H18.4375V18.125H20.5V19.0625H20.5625C20.875 18.5 21.625 17.875 22.6875 17.875C24.9375 17.875 25.375 19.375 25.375 21.3125V25.1875H25.3125Z" fill="#164CD6"/>
</svg>
