<svg width="112" height="19" viewBox="0 0 112 19" fill="none" xmlns="http://www.w3.org/2000/svg">
<path d="M13.8679 5.28513C13.6266 5.09187 13.3678 4.91992 13.0944 4.77135C12.692 4.55445 12.2689 4.37538 11.8308 4.23661C11.2917 4.03744 10.7383 3.87624 10.1749 3.75429C9.53865 3.6162 8.88796 3.54937 8.23577 3.55508C7.44898 3.5118 6.66409 3.66722 5.95895 4.00594C5.70874 4.13048 5.50025 4.32063 5.3576 4.55442C5.21494 4.7882 5.14394 5.05607 5.15281 5.32706C5.136 5.6489 5.24921 5.96452 5.46873 6.20783C5.73236 6.47513 6.0516 6.68593 6.4056 6.82645C6.87446 7.03321 7.36344 7.19476 7.86538 7.30876C8.43186 7.45555 9.0855 7.61283 9.81539 7.75962C10.7462 7.96343 11.6631 8.22256 12.5606 8.53553C13.3146 8.77592 14.0243 9.12982 14.6632 9.58405C15.2197 9.9893 15.6709 10.5133 15.9813 11.1149C16.3144 11.8071 16.4748 12.5647 16.4498 13.3272C16.4888 14.1922 16.2934 15.052 15.8827 15.8222C15.4721 16.5924 14.8603 17.2466 14.1076 17.7205C13.3578 18.1865 12.5278 18.5203 11.6565 18.7061C10.6902 18.9076 9.70378 19.0061 8.71511 18.9997C7.15246 18.9988 5.59766 18.787 4.0961 18.3706C2.65394 17.9748 1.27553 17.3891 0 16.6301L1.88464 13.1175C2.19092 13.403 2.53096 13.6528 2.89777 13.862C3.40799 14.1517 3.94388 14.3973 4.49917 14.5959C5.15893 14.8278 5.83638 15.0101 6.52543 15.1412C7.27082 15.2897 8.03018 15.3635 8.79136 15.3614C10.9701 15.3614 11.9833 14.8057 11.9833 13.6942C11.9922 13.3862 11.8793 13.0864 11.6673 12.8554C11.4161 12.5978 11.1167 12.388 10.7849 12.2368C10.3195 12.0229 9.83446 11.8509 9.33606 11.723C8.76958 11.5622 8.10505 11.3945 7.34247 11.2197C6.34763 10.9764 5.36902 10.6753 4.41202 10.318C3.68921 10.0682 3.00975 9.71468 2.39666 9.26949C1.8948 8.88684 1.49516 8.39435 1.23101 7.83301C0.965916 7.22611 0.836026 6.57246 0.849721 5.91424C0.834453 5.02645 1.04383 4.1484 1.45978 3.35586C1.84265 2.6236 2.39859 1.98796 3.08297 1.49999C3.81132 0.996114 4.62633 0.619874 5.49052 0.388564C6.43895 0.123409 7.42247 -0.00727602 8.41007 0.000618837C9.79628 -0.0131586 11.1746 0.20321 12.4844 0.640214C13.603 1.00567 14.677 1.48733 15.6872 2.07667L13.8679 5.28513Z" fill="white"/>
<path d="M21.875 18.7585H17.4412L25.8294 0.0844727H29.2283L37.5731 18.7585H33.1719L27.5071 5.93519L21.875 18.7585Z" fill="white"/>
<path d="M39.3159 18.7585V0.0844727H43.4774V15.2145H53.3037V18.7585H39.3159Z" fill="white"/>
<path d="M55.842 18.7585V0.0844727H59.9926V15.2145H69.8189V18.7585H55.842Z" fill="white"/>
<path d="M71.1262 0.0844727L76.377 8.79763L81.7041 0.0844727H86.236L78.4686 12.3102V18.7585H74.3181V12.2787L66.6597 0.0844727H71.1262Z" fill="white"/>
<path d="M94.6133 18.7585V0.0424472H104.058C104.993 0.0315169 105.919 0.217618 106.771 0.58768C107.58 0.938605 108.317 1.42497 108.95 2.02414C109.542 2.61059 110.019 3.29643 110.355 4.04778C110.677 4.7668 110.847 5.54018 110.856 6.32306C110.844 7.4846 110.464 8.61495 109.767 9.56297C109.084 10.5352 108.118 11.2906 106.989 11.7334L112 18.7165H107.261L102.795 12.6037H98.7638V18.7165L94.6133 18.7585ZM98.7638 9.10162H103.993C104.351 9.10846 104.705 9.04185 105.034 8.90625C105.363 8.77065 105.658 8.56917 105.899 8.31523C106.414 7.78843 106.692 7.0877 106.673 6.36499C106.679 5.98544 106.597 5.60937 106.433 5.26405C106.28 4.93882 106.066 4.64373 105.801 4.39378C105.538 4.14928 105.227 3.95692 104.886 3.82759C104.541 3.69055 104.17 3.62276 103.797 3.62837H98.7856L98.7638 9.10162Z" fill="white"/>
</svg>
