<svg width="2024" height="629" viewBox="0 0 2024 629" fill="none" xmlns="http://www.w3.org/2000/svg">
  <path opacity="0.2" d="M1987.5 219L1921.41 234.342C1831 257 1302.86 307.943 1171.29 306.306C1039.73 304.669 902.286 261.492 775.755 295.461C649.225 329.43 533.604 440.546 409.591 492.319C285.578 544.091 153.173 536.52 86.9706 532.734L20.7682 528.948" stroke="url(#paint0_radial_1363_585)" stroke-width="2" stroke-dasharray="4 4"/>
  <path opacity="0.1" d="M1987 1L1486.98 209.489C1426.02 233.7 1304.1 282.123 1176.91 307.019C1049.73 331.915 917.282 333.284 786.152 340.534C655.023 347.785 525.209 360.917 400.656 397.576C276.104 434.236 156.812 494.422 97.1662 524.515L37.5204 554.609" stroke="url(#paint1_radial_1363_585)" stroke-width="2"/>
  <path opacity="0.1" d="M1989 627.5L1532.22 493.144C1496.5 483.549 1423.78 464.316 1350.8 449.284C1276.53 434.21 1203.31 423.379 1128.83 433.554C1054.35 443.729 978.612 474.909 905.385 464.078C832.159 453.247 760.147 400.363 688.175 368.527C616.202 336.69 542.976 325.86 469.498 319.23C396.021 312.6 322.293 310.172 245.767 332.907C170.534 355.685 93.7958 403.67 56.0736 427.684L17.058 451.655" stroke="url(#paint2_radial_1363_585)" stroke-width="2"/>
  <defs>
    <radialGradient id="paint0_radial_1363_585" cx="0" cy="0" r="1" gradientUnits="userSpaceOnUse" gradientTransform="translate(1000.84 350.652) rotate(81.9508) scale(86.0772 995.378)">
      <stop stop-color="#918EFF"/>
      <stop offset="1" stop-color="#AEB9F4"/>
    </radialGradient>
    <radialGradient id="paint1_radial_1363_585" cx="0" cy="0" r="1" gradientUnits="userSpaceOnUse" gradientTransform="translate(1012.26 277.804) rotate(77.3946) scale(84.4302 1011.65)">
      <stop stop-color="#918EFF"/>
      <stop offset="1" stop-color="#AEB9F4"/>
    </radialGradient>
    <radialGradient id="paint2_radial_1363_585" cx="0" cy="0" r="1" gradientUnits="userSpaceOnUse" gradientTransform="translate(1007.48 465.017) rotate(-86.5834) scale(130.129 989.458)">
      <stop stop-color="#918EFF"/>
      <stop offset="1" stop-color="#AEB9F4"/>
    </radialGradient>
  </defs>
</svg>
