<svg width="94" height="68" viewBox="0 0 94 68" fill="none" xmlns="http://www.w3.org/2000/svg">
<g clip-path="url(#clip0_503:558)">
<path d="M89.85 23.73C89.7652 26.8046 88.5596 29.7422 86.46 31.99C82.7 36.35 76.06 39.86 67.82 41.86C57.513 44.2467 46.797 44.2467 36.49 41.86C28.26 39.86 21.61 36.35 17.85 31.99C16.3109 30.289 15.2303 28.2241 14.71 25.99L52.16 23.73L34.64 6.04999C40.3487 4.49041 46.2421 3.71001 52.16 3.72999C73.02 3.72999 89.85 12.73 89.85 23.73ZM89.22 37.62C85.22 42.16 78.01 45.82 69.15 47.9C58.0416 50.3943 46.5184 50.3943 35.41 47.9C26.54 45.82 19.41 42.16 15.34 37.62C14.9012 37.1339 14.4905 36.623 14.11 36.09C12.583 34.0455 11.7397 31.5715 11.7 29.02V46.22C11.6985 46.7826 11.742 47.3443 11.83 47.9C11.9748 48.7925 12.2231 49.665 12.57 50.5C16.42 59.9 32.75 66.96 52.28 66.96C73.58 66.96 91.05 58.57 92.73 47.9C92.813 47.3438 92.8565 46.7824 92.86 46.22V28.97C92.7633 32.1906 91.4648 35.2585 89.22 37.57V37.62Z" stroke="#918EFF" stroke-width="2" stroke-linecap="round" stroke-linejoin="round"/>
<path d="M21.16 1C9.16001 4.33 1 11 1 18.64C0.999631 19.3865 1.08011 20.1308 1.24001 20.86L38.69 18.64L21.16 1Z" stroke="#FF981F" stroke-width="2" stroke-linecap="round" stroke-linejoin="round"/>
</g>
<defs>
<clipPath id="clip0_503:558">
<rect width="93.86" height="67.91" fill="white"/>
</clipPath>
</defs>
</svg>
