<svg width="22" height="19" viewBox="0 0 22 19" fill="none" xmlns="http://www.w3.org/2000/svg">
<path d="M4.36865 4.60703C4.36865 4.60703 10.0068 6.79854 9.95178 17.7098C9.95178 17.7098 9.04065 9.9624 16.1593 6.29822" stroke="#164CD6" stroke-width="1.5" stroke-linecap="round" stroke-linejoin="round"/>
<path d="M8.24894 8.64094C8.24894 8.64094 2.90657 11.7967 1.70937 6.15377C1.70937 6.15377 1.05929 2.5925 1 1.36607C1 1.36607 6.44425 0.954834 8.24894 2.96214C8.24894 2.96162 10.888 5.20028 8.24894 8.64094Z" stroke="#164CD6" stroke-width="1.5" stroke-linecap="round" stroke-linejoin="round"/>
<path d="M13.2719 8.07138C13.2719 8.07138 10.9526 2.60334 16.3887 2.07768C16.3887 2.07768 19.8081 1.8472 20.9637 1.92544C20.9637 1.92544 20.697 7.19057 18.5983 8.69735C18.6008 8.69765 16.1842 10.9804 13.2719 8.07138Z" stroke="#164CD6" stroke-width="1.5" stroke-linecap="round" stroke-linejoin="round"/>
</svg>
