<svg width="86" height="70" viewBox="0 0 86 70" fill="none" xmlns="http://www.w3.org/2000/svg">
<path d="M79.9402 28.8178L77.747 21.7118L68.6122 24.1575L42.0054 18.0904C37.6523 17.0991 31.9368 18.6036 29.3094 21.4382L12.9596 39.0721L5.90434 40.9591L7.66687 46.5014C7.79777 48.22 9.36755 49.6916 12.1089 50.3191L45.7712 57.9963C50.1243 58.9876 55.8349 57.4846 58.4657 54.6439L78.7958 32.7253C80.0234 31.4072 80.3586 30.0222 79.9402 28.8178Z" fill="#918EFF"/>
<path d="M76.7707 26.1641L56.4406 48.0826C53.8084 50.9186 48.0993 52.4264 43.7447 51.4304L10.0838 43.7579C5.73542 42.7651 4.32197 39.6315 6.94945 36.797L27.2843 14.877C29.9118 12.0424 35.6257 10.5331 39.9803 11.5292L73.6364 19.2032C77.9895 20.1945 79.4029 23.3281 76.7707 26.1641Z" fill="white" stroke="#918EFF" stroke-width="2" stroke-miterlimit="10"/>
<path d="M47.7743 40.1103L46.4228 41.5652C46.3526 41.6325 46.2677 41.6825 46.1747 41.7112C46.0818 41.7399 45.9835 41.7464 45.8875 41.7304L24.1798 36.7766C23.9909 36.7363 23.9344 36.6033 24.047 36.4804L25.3984 35.0255C25.4692 34.9592 25.5542 34.9098 25.6469 34.8812C25.7397 34.8526 25.8377 34.8455 25.9336 34.8603L47.6399 39.8094C47.8302 39.8544 47.8869 39.9874 47.7743 40.1103ZM45.9497 41.1923L46.8962 40.1738L25.8656 35.3794L24.9191 36.398L45.9497 41.1923Z" fill="#918EFF"/>
<path d="M39.3714 33.4784C38.9066 33.8962 38.3051 34.1299 37.6802 34.1353C34.959 34.4304 29.8133 33.2582 28.5077 32.0371C28.0283 31.5936 28.1759 31.2315 28.3817 31.0071L39.6237 22.6964C39.7681 22.6028 39.9426 22.5674 40.112 22.5975C40.3523 22.6531 40.3474 22.8725 40.1379 22.9839L29.003 31.2045C28.9047 31.3231 28.9537 31.5155 29.1697 31.7446C30.328 32.8244 35.2506 33.9461 37.6652 33.6834C38.018 33.6919 38.364 33.5851 38.6506 33.3792L43.9551 23.8864C43.9804 23.7333 44.3037 23.5868 44.5425 23.6376C44.6985 23.6725 44.7716 23.7745 44.7079 23.8875L39.3637 33.4704L39.3714 33.4784Z" fill="#918EFF"/>
<path d="M44.7041 23.9094C44.2252 24.4256 42.7637 24.5654 41.3064 24.2316C39.8492 23.8979 39.1075 23.2603 39.5864 22.7441C40.0653 22.2279 41.5268 22.0882 42.9841 22.4219C44.4413 22.7556 45.183 23.3932 44.7041 23.9094ZM40.2431 22.9047C40.0727 23.0922 40.5644 23.5423 41.6925 23.8012C42.8205 24.0601 43.8155 23.9554 44.0001 23.7635C44.1848 23.5716 43.685 23.1291 42.5522 22.8717C41.4195 22.6142 40.4386 22.7146 40.2667 22.8974L40.2431 22.9047Z" fill="#918EFF"/>
<path d="M40.8494 30.1476L39.7257 32.1549C38.0029 32.0814 36.291 31.8436 34.6134 31.4446C33.0918 31.1286 31.6112 30.6403 30.2002 29.9892L32.541 28.2601C33.7568 28.8546 35.045 29.2873 36.3731 29.5472C37.8405 29.9014 39.3406 30.1026 40.8494 30.1476Z" fill="#918EFF"/>
<path d="M39.6547 26.0076C40.7239 26.2598 41.8137 26.4149 42.9109 26.4709L41.7888 28.4673C40.4774 28.3891 39.1749 28.201 37.895 27.9049C36.7317 27.6571 35.5973 27.2891 34.5102 26.8067L36.8383 25.0867C37.7388 25.5003 38.6838 25.8093 39.6547 26.0076Z" fill="#918EFF"/>
<path d="M36.2468 33.9966C36.1979 34.046 36.1386 34.0838 36.0733 34.1073L30.4538 36.3087C30.335 36.3558 30.205 36.367 30.0798 36.3411C29.9675 36.3135 29.8967 36.2523 29.889 36.1768L29.5998 32.634C29.5884 32.513 29.7607 32.382 29.9794 32.3509C30.198 32.3197 30.3814 32.3928 30.3895 32.52L30.6534 35.7282L35.746 33.7361C35.8296 33.6917 35.9241 33.6723 36.0184 33.6799C36.1127 33.6876 36.2029 33.7221 36.2783 33.7794C36.2907 33.7956 36.2998 33.8142 36.3049 33.834C36.31 33.8538 36.3111 33.8744 36.3081 33.8946C36.3052 33.9148 36.2983 33.9343 36.2878 33.9518C36.2772 33.9693 36.2633 33.9846 36.2468 33.9966Z" fill="#918EFF"/>
</svg>
