<svg width="100" height="69" viewBox="0 0 100 69" fill="none" xmlns="http://www.w3.org/2000/svg">
<path d="M98.3384 33.6194L87.4282 32.7557L55.6655 13.071C50.6953 9.99398 42.9862 9.42981 38.5178 11.8473L10.7888 26.7226L1.2297 25.963L0.962753 34.4996C0.901546 36.4568 2.2107 38.5601 4.96267 40.2479L43.3476 64.0375C48.3107 67.1211 56.0201 67.6784 60.4953 65.2611L94.9641 46.7745C96.9916 45.6899 98.0016 44.1679 98.0386 42.5467L98.3384 33.6194Z" fill="#918EFF"/>
<path d="M95.2511 37.8192L60.7822 56.3058C56.3285 58.6963 48.6191 58.139 43.6346 55.0821L5.24961 31.2926C0.279628 28.2087 -0.130437 23.7343 4.32329 21.3438L38.7921 2.85728C43.2458 0.466782 50.955 1.03095 55.9398 4.08095L94.3247 27.8705C99.2947 30.9544 99.7117 35.4289 95.2511 37.8192Z" fill="white" stroke="#918EFF" stroke-width="2" stroke-miterlimit="10"/>
<path d="M64.4542 43.0844C61.0982 44.8837 55.33 44.4627 51.5941 42.146C49.0247 40.5533 47.9988 38.4108 48.9008 36.6036L27.8 23.5218C26.1206 22.4862 25.9819 20.9832 27.4922 20.1711C28.3742 19.7521 29.3549 19.5853 30.3258 19.6892C31.3664 19.7473 32.3777 20.0549 33.2745 20.5857L54.3753 33.6676C57.6318 33.2924 60.9224 33.9763 63.7597 35.6178C67.495 37.955 67.817 41.2854 64.4542 43.0844ZM28.5374 20.8225C27.5448 21.3483 27.6378 22.3343 28.7368 23.0217L50.1751 36.3066C50.3774 36.4298 50.4541 36.6109 50.3672 36.7526C49.4177 38.3177 50.2584 40.2345 52.5314 41.6323C55.6943 43.5873 60.5707 43.9461 63.4094 42.4193C66.2482 40.8926 65.9792 38.0657 62.8231 36.1109C60.3214 34.6472 57.3987 34.0714 54.5288 34.4767C54.2665 34.5156 53.9988 34.4635 53.7703 34.3292L32.3389 21.0445C31.7501 20.6976 31.0872 20.4954 30.4049 20.4547C29.7603 20.4012 29.1136 20.5286 28.5374 20.8225Z" fill="#918EFF"/>
<path d="M61.804 41.441C59.7061 42.5784 56.0434 42.3127 53.6763 40.85C51.3091 39.3874 51.121 37.2711 53.2395 36.1343C55.358 34.9975 59.0068 35.2629 61.3671 36.7253C63.7274 38.1877 63.9293 40.3045 61.804 41.441ZM54.2849 36.7788C52.6837 37.6431 52.8329 39.2425 54.62 40.3502C56.4071 41.4579 59.1575 41.6539 60.7586 40.7965C62.3596 39.9392 62.2106 38.3328 60.4302 37.2322C58.6497 36.1317 55.886 35.9215 54.2849 36.7788Z" fill="#918EFF"/>
<path d="M33.0128 26.3109L29.7477 28.0648C29.5889 28.1309 29.4169 28.1588 29.2454 28.1463C29.0738 28.1338 28.9076 28.0812 28.7601 27.9927C28.4701 27.8118 28.4437 27.5566 28.7025 27.4135L31.9674 25.6664C32.127 25.5986 32.3006 25.5699 32.4735 25.5825C32.6465 25.5951 32.8139 25.6486 32.9621 25.7387C33.2383 25.9192 33.2714 26.1746 33.0128 26.3109Z" fill="#918EFF"/>
<path d="M37.3222 28.9821L34.0569 30.7362C33.8981 30.8022 33.7261 30.8302 33.5546 30.8176C33.383 30.8051 33.2168 30.7524 33.0693 30.664C32.7794 30.4831 32.7531 30.2279 33.0119 30.0848L36.2768 28.3377C36.4364 28.27 36.6098 28.2412 36.7828 28.2537C36.9557 28.2663 37.1232 28.3199 37.2713 28.41C37.5615 28.5841 37.5808 28.8459 37.3222 28.9821Z" fill="#918EFF"/>
<path d="M41.6316 31.6466L38.3664 33.4006C38.2061 33.4651 38.0332 33.4922 37.8608 33.4797C37.6884 33.4671 37.5212 33.4153 37.3719 33.3283C37.082 33.1473 37.0624 32.8924 37.3212 32.7493L40.5864 30.9952C40.7467 30.9307 40.9196 30.9037 41.092 30.9162C41.2644 30.9288 41.4317 30.9806 41.581 31.0676C41.8639 31.2552 41.89 31.5172 41.6316 31.6466Z" fill="#918EFF"/>
<path d="M45.9406 34.3249L42.6753 36.0789C42.515 36.1434 42.342 36.1704 42.1696 36.1579C41.9973 36.1454 41.8301 36.0936 41.6808 36.0065C41.3908 35.8256 41.3715 35.5638 41.6301 35.4275L44.8954 33.6735C45.0557 33.609 45.2286 33.5819 45.401 33.5944C45.5734 33.607 45.7406 33.6588 45.8899 33.7458C46.1729 33.9266 46.1994 34.1817 45.9406 34.3249Z" fill="#918EFF"/>
<path d="M49.4453 20.2941C49.2853 20.3602 49.112 20.3881 48.9394 20.3755C48.7668 20.363 48.5995 20.3103 48.4508 20.2217L42.9343 16.8045C42.6443 16.6236 42.6251 16.3618 42.8837 16.2255C43.0425 16.1594 43.2146 16.1315 43.3861 16.1441C43.5576 16.1566 43.7239 16.2092 43.8714 16.2976L49.3946 19.7151C49.6776 19.8958 49.7041 20.151 49.4453 20.2941Z" fill="#918EFF"/>
<path d="M67.5923 31.5442C67.432 31.6088 67.2591 31.6358 67.0867 31.6233C66.9143 31.6107 66.7471 31.5589 66.5978 31.4719L61.0817 28.0478C60.7916 27.8737 60.7722 27.6119 61.0308 27.4757C61.1904 27.4079 61.3638 27.3791 61.5368 27.3917C61.7097 27.4043 61.8772 27.4578 62.0253 27.548L67.5416 30.9651C67.8247 31.1459 67.8512 31.4011 67.5923 31.5442Z" fill="#918EFF"/>
<path d="M51.8501 21.2147C52.1536 21.4029 52.1726 21.6716 51.9069 21.8145C51.7409 21.8856 51.5603 21.9161 51.3801 21.9033C51.2 21.8905 51.0254 21.8348 50.8711 21.7409C50.5675 21.5596 50.5485 21.2909 50.8144 21.1411C50.9811 21.0732 51.1612 21.0445 51.3408 21.0573C51.5204 21.07 51.6947 21.1239 51.8501 21.2147Z" fill="#918EFF"/>
<path d="M54.4325 22.8216C54.7362 23.0029 54.7622 23.2718 54.4895 23.4214C54.3227 23.4893 54.1426 23.518 53.963 23.5052C53.7835 23.4925 53.6092 23.4386 53.4537 23.3478C53.1571 23.1598 53.1311 22.8909 53.3968 22.748C53.5628 22.6769 53.7436 22.6464 53.9237 22.6592C54.1039 22.672 54.2782 22.7277 54.4325 22.8216Z" fill="#918EFF"/>
<path d="M57.0223 24.4217C57.3189 24.6097 57.3448 24.8786 57.0722 25.0213C56.9058 25.0908 56.7256 25.1203 56.5457 25.1075C56.3659 25.0947 56.1916 25.0399 56.0367 24.9476C55.7401 24.7596 55.714 24.4907 55.9866 24.348C56.153 24.2785 56.3334 24.249 56.5133 24.2618C56.6931 24.2746 56.8675 24.3294 57.0223 24.4217Z" fill="#918EFF"/>
<path d="M59.6052 26.0219C59.9087 26.2101 59.9277 26.4788 59.662 26.6217C59.496 26.6929 59.3154 26.7233 59.1352 26.7105C58.9551 26.6977 58.7805 26.642 58.6263 26.5482C58.3226 26.3668 58.2969 26.0909 58.5695 25.9482C58.7362 25.8803 58.9163 25.8517 59.0959 25.8645C59.2755 25.8773 59.4498 25.9311 59.6052 26.0219Z" fill="#918EFF"/>
</svg>
