<svg width="40" height="40" viewBox="0 0 40 40" fill="none" xmlns="http://www.w3.org/2000/svg">
<circle cx="20" cy="20" r="20" fill="white"/>
<path d="M28.3812 15.7875C28.2816 15.4175 28.0866 15.0802 27.8157 14.8093C27.5448 14.5383 27.2075 14.3433 26.8375 14.2438C25.475 13.875 20 13.875 20 13.875C20 13.875 14.525 13.875 13.1625 14.2438C12.7925 14.3433 12.4552 14.5383 12.1843 14.8093C11.9133 15.0802 11.7183 15.4175 11.6187 15.7875C11.3643 17.177 11.2409 18.5874 11.25 20C11.2409 21.4126 11.3643 22.823 11.6187 24.2125C11.7183 24.5825 11.9133 24.9198 12.1843 25.1907C12.4552 25.4616 12.7925 25.6567 13.1625 25.7562C14.525 26.125 20 26.125 20 26.125C20 26.125 25.475 26.125 26.8375 25.7562C27.2075 25.6567 27.5448 25.4616 27.8157 25.1907C28.0866 24.9198 28.2816 24.5825 28.3812 24.2125C28.6356 22.823 28.7591 21.4126 28.75 20C28.7591 18.5874 28.6356 17.177 28.3812 15.7875V15.7875ZM18.25 22.625V17.375L22.7937 20L18.25 22.625Z" fill="#164CD6"/>
</svg>
